<?xml version="1.0" encoding="UTF-8"?>
<svg width="16px" height="16px" viewBox="0 0 16 16" version="1.1" xmlns="http://www.w3.org/2000/svg" xmlns:xlink="http://www.w3.org/1999/xlink">
    <title>切片</title>
    <g id="页面-1" stroke="none" stroke-width="1" fill="none" fill-rule="evenodd">
        <g id="报价管理——首页" transform="translate(-20.000000, -280.000000)" stroke="#181818">
            <g id="03导航/侧边导航/一级导航/箭头-正常备份-3" transform="translate(0.000000, 264.000000)">
                <g id="编组" transform="translate(20.000000, 16.000000)">
                    <path d="M15,0.5 L15.5,8 L13.5,8.5 L13.5,15 L1,15.5 L0.5,6 L2.5,5.5 L2.5,1 L15,0.5 Z" id="形状结合"></path>
                    <rect id="矩形备份-7" x="0.5" y="5.5" width="13" height="10" rx="1"></rect>
                    <line x1="1" y1="9" x2="13" y2="9" id="路径-2备份-5" stroke-linejoin="round"></line>
                    <line x1="2" y1="12" x2="7" y2="12" id="路径-2备份-6" stroke-linejoin="round"></line>
                    <line x1="11" y1="3" x2="14" y2="3" id="路径-2备份-7" stroke-linejoin="round"></line>
                    <path d="M9,11 L10,12 L11,11 M9,13 L11,13 M9,12 L11,12 M10,12 L10,14" id="形状结合" stroke-width="0.5" stroke-linejoin="round"></path>
                </g>
            </g>
        </g>
    </g>
</svg>