<?xml version="1.0" encoding="UTF-8"?>
<svg width="16px" height="16px" viewBox="0 0 16 16" version="1.1" xmlns="http://www.w3.org/2000/svg" xmlns:xlink="http://www.w3.org/1999/xlink">
    <title>切片</title>
    <g id="页面-1" stroke="none" stroke-width="1" fill="none" fill-rule="evenodd">
        <g id="报价管理——首页" transform="translate(-20.000000, -376.000000)" stroke="#181818">
            <g id="03导航/侧边导航/一级导航/箭头-正常备份-5" transform="translate(0.000000, 360.000000)">
                <g id="工艺技术管理" transform="translate(20.000000, 16.000000)">
                    <path d="M8,0.5 C9.24264069,0.5 10.3676407,1.00367966 11.1819805,1.81801948 C11.9963203,2.63235931 12.5,3.75735931 12.5,5 C12.5,5.418016 12.4431041,5.82273898 12.3364792,6.20679994 C13.4867593,7.13842718 14.2113502,7.72201812 14.7190315,8.46548298 C15.2119174,9.18728082 15.5,10.0600148 15.5,11 C15.5,12.2426407 14.9963203,13.3676407 14.1819805,14.1819805 C13.3676407,14.9963203 12.2426407,15.5 11,15.5 C9.98701991,15.5 9.05215787,15.1653907 8.30011386,14.6004515 C6.94842686,15.1652169 6.01328548,15.5 5,15.5 C3.75735931,15.5 2.63235931,14.9963203 1.81801948,14.1819805 C1.00367966,13.3676407 0.5,12.2426407 0.5,11 C0.5,10.0599757 0.788107486,9.18720791 1.28110688,8.46540402 C1.78885776,7.72200239 2.51357005,7.13847827 3.36422647,6.80639491 C3.55683463,5.82229081 3.5,5.41778544 3.5,5 C3.5,3.75735931 4.00367966,2.63235931 4.81801948,1.81801948 C5.63235931,1.00367966 6.75735931,0.5 8,0.5 Z" id="形状结合"></path>
                    <path d="M8,0.5 C9.24264069,0.5 10.3676407,1.00367966 11.1819805,1.81801948 C11.9963203,2.63235931 12.5,3.75735931 12.5,5 C12.5,5.94002429 12.2118925,6.81279209 11.7188931,7.53459598 C11.2111422,8.27799761 10.4864299,8.86152173 9.63577353,9.19360509 C9.44316537,10.1777092 9.5,10.5822146 9.5,11 C9.5,12.2426407 8.99632034,13.3676407 8.18198052,14.1819805 C7.36764069,14.9963203 6.24264069,15.5 5,15.5 C3.75735931,15.5 2.63235931,14.9963203 1.81801948,14.1819805 C1.00367966,13.3676407 0.5,12.2426407 0.5,11 C0.5,10.0599757 0.788107486,9.18720791 1.28110688,8.46540402 C1.78885776,7.72200239 2.51357005,7.13847827 3.36422647,6.80639491 C3.55683463,5.82229081 3.5,5.41778544 3.5,5 C3.5,3.75735931 4.00367966,2.63235931 4.81801948,1.81801948 C5.63235931,1.00367966 6.75735931,0.5 8,0.5 Z" id="形状结合备份"></path>
                    <circle id="椭圆形备份-9" cx="5" cy="11" r="4.5"></circle>
                    <line x1="5" y1="10" x2="5" y2="12" id="路径备份" stroke-linejoin="round"></line>
                </g>
            </g>
        </g>
    </g>
</svg>