<?xml version="1.0" encoding="UTF-8"?>
<svg width="16px" height="16px" viewBox="0 0 16 16" version="1.1" xmlns="http://www.w3.org/2000/svg" xmlns:xlink="http://www.w3.org/1999/xlink">
    <title>切片</title>
    <g id="页面-1" stroke="none" stroke-width="1" fill="none" fill-rule="evenodd">
        <g id="报价管理——首页" transform="translate(-20.000000, -424.000000)" stroke="#181818">
            <g id="03导航/侧边导航/一级导航/箭头-正常备份-6" transform="translate(0.000000, 408.000000)">
                <g id="采购管理" transform="translate(20.000000, 16.000000)">
                    <g id="3个圈">
                        <circle id="椭圆形备份-3" cx="8" cy="4" r="3.5"></circle>
                        <circle id="椭圆形备份-4" cx="3" cy="13" r="2.5"></circle>
                        <circle id="椭圆形备份-5" cx="13" cy="13" r="2.5"></circle>
                    </g>
                    <path d="M8,0.5 C8.96649831,0.5 9.84149831,0.891750844 10.4748737,1.52512627 C11.1082492,2.15850169 11.5,3.03350169 11.5,4 C11.5,4.98197606 11.0956739,5.86954976 10.444227,6.50512185 L10.444227,6.50512185 L12.4544678,10.5243128 C13.3793149,10.4413057 14.1771342,10.7173527 14.7253846,11.2227412 C15.2138888,11.6730543 15.5,12.3032398 15.5,13 C15.5,13.6903559 15.220178,14.3153559 14.767767,14.767767 C14.3153559,15.220178 13.6903559,15.5 13,15.5 C12.3096441,15.5 11.6846441,15.220178 11.232233,14.767767 C10.779822,14.3153559 10.5,13.6903559 10.5,13 L10.5,13 L10.6322418,12.0002947 L5.36775824,12.0002947 L5.46545335,12.5829734 C5.5,13.6903559 5.22017797,14.3153559 4.76776695,14.767767 C4.31535594,15.220178 3.69035594,15.5 3,15.5 C2.30964406,15.5 1.68464406,15.220178 1.23223305,14.767767 C0.779822031,14.3153559 0.5,13.6903559 0.5,13 C0.5,12.3096441 0.779822031,11.6846441 1.23223305,11.232233 C1.74527676,10.7191893 2.48027064,10.4280958 3.28083072,10.5153364 L3.28083072,10.5153364 L5.5719207,6.52077587 C4.91101469,5.88416482 4.5,4.99006448 4.5,4 C4.5,3.03350169 4.89175084,2.15850169 5.52512627,1.52512627 C6.15850169,0.891750844 7.03350169,0.5 8,0.5 Z" id="形状结合"></path>
                </g>
            </g>
        </g>
    </g>
</svg>